<?xml version="1.0" standalone="no"?>
<!DOCTYPE svg PUBLIC "-//W3C//DTD SVG 20010904//EN"
 "http://www.w3.org/TR/2001/REC-SVG-20010904/DTD/svg10.dtd">
<svg version="1.0" xmlns="http://www.w3.org/2000/svg"
 width="512.000000pt" height="512.000000pt" viewBox="0 0 512.000000 512.000000"
 preserveAspectRatio="xMidYMid meet">

<g transform="translate(0.000000,512.000000) scale(0.100000,-0.100000)"
fill="#000000" stroke="none">
<path d="M2420 4954 c-298 -38 -551 -162 -761 -373 -188 -189 -299 -392 -355
-651 -26 -119 -26 -381 0 -500 55 -257 169 -466 355 -651 185 -186 394 -300
651 -355 119 -26 381 -26 500 0 259 56 462 167 651 355 186 185 300 394 355
651 26 119 26 381 0 500 -55 257 -169 466 -355 651 -185 185 -380 293 -631
350 -83 19 -331 33 -410 23z m371 -343 c179 -46 319 -127 449 -260 129 -130
212 -278 257 -457 24 -95 24 -333 0 -428 -46 -185 -125 -324 -262 -461 -137
-137 -276 -216 -461 -262 -98 -24 -324 -24 -424 0 -364 88 -636 359 -727 723
-24 95 -24 333 0 428 46 182 128 328 261 462 158 157 305 231 556 278 59 11
277 -3 351 -23z"/>
<path d="M1750 2236 c-76 -28 -242 -118 -341 -184 -530 -356 -857 -906 -920
-1547 -16 -167 -10 -233 25 -280 54 -70 -110 -65 2060 -63 l1965 3 27 21 c73
54 85 113 65 319 -71 731 -499 1357 -1144 1676 -163 81 -164 81 -305 26 -241
-94 -380 -120 -622 -120 -243 0 -398 30 -628 123 -107 43 -128 46 -182 26z
m140 -355 c92 -36 243 -75 370 -96 332 -54 700 -12 1026 116 30 12 37 9 134
-46 329 -186 600 -483 749 -824 69 -155 141 -426 141 -528 l0 -23 -1750 0
-1750 0 0 23 c0 43 32 212 57 297 127 444 420 817 823 1049 58 34 109 61 115
61 5 0 44 -13 85 -29z"/>
</g>
</svg>
