<svg width="30" height="30" viewBox="0 0 30 30" fill="none" xmlns="http://www.w3.org/2000/svg">
<path d="M24.9997 14.6876H4.9997C4.7122 14.6876 4.4497 14.5626 4.2747 14.3376C4.0997 14.1251 4.0247 13.8251 4.0872 13.5501L5.4997 6.8001C5.9622 4.6126 6.8997 2.6001 10.6122 2.6001H19.3997C23.1122 2.6001 24.0497 4.6251 24.5122 6.8001L25.9247 13.5626C25.9872 13.8376 25.9122 14.1251 25.7372 14.3501C25.5497 14.5626 25.2872 14.6876 24.9997 14.6876ZM6.1497 12.8126H23.8372L22.6622 7.1876C22.3122 5.5501 21.8997 4.4751 19.3872 4.4751H10.6122C8.0997 4.4751 7.6872 5.5501 7.3372 7.1876L6.1497 12.8126Z" fill="#595959"/>
<path d="M24.9495 28.4376H22.5995C20.5745 28.4376 20.187 27.2751 19.937 26.5126L19.687 25.7626C19.362 24.8126 19.3245 24.6876 18.1995 24.6876H11.7995C10.6745 24.6876 10.5995 24.9001 10.312 25.7626L10.062 26.5126C9.7995 27.2876 9.4245 28.4376 7.3995 28.4376H5.0495C4.062 28.4376 3.112 28.0251 2.4495 27.3001C1.7995 26.5876 1.487 25.6376 1.5745 24.6876L2.2745 17.0751C2.462 15.0126 3.012 12.8126 7.0245 12.8126H22.9745C26.987 12.8126 27.5245 15.0126 27.7245 17.0751L28.4245 24.6876C28.512 25.6376 28.1995 26.5876 27.5495 27.3001C26.887 28.0251 25.937 28.4376 24.9495 28.4376ZM11.7995 22.8126H18.1995C20.4745 22.8126 21.012 23.8251 21.462 25.1501L21.7245 25.9251C21.937 26.5626 21.937 26.5751 22.612 26.5751H24.962C25.4245 26.5751 25.862 26.3876 26.1745 26.0501C26.4745 25.7251 26.612 25.3126 26.5745 24.8751L25.8745 17.2626C25.712 15.5751 25.512 14.7001 22.9995 14.7001H7.0245C4.4995 14.7001 4.2995 15.5751 4.1495 17.2626L3.4495 24.8751C3.412 25.3126 3.5495 25.7251 3.8495 26.0501C4.1495 26.3876 4.5995 26.5751 5.062 26.5751H7.412C8.087 26.5751 8.087 26.5626 8.2995 25.9376L8.5495 25.1751C8.862 24.1751 9.3245 22.8126 11.7995 22.8126Z" fill="#595959"/>
<path d="M4.99951 10.9376H3.74951C3.23701 10.9376 2.81201 10.5126 2.81201 10.0001C2.81201 9.48759 3.23701 9.06259 3.74951 9.06259H4.99951C5.51201 9.06259 5.93701 9.48759 5.93701 10.0001C5.93701 10.5126 5.51201 10.9376 4.99951 10.9376Z" fill="#595959"/>
<path d="M26.2495 10.9376H24.9995C24.487 10.9376 24.062 10.5126 24.062 10.0001C24.062 9.48759 24.487 9.06259 24.9995 9.06259H26.2495C26.762 9.06259 27.187 9.48759 27.187 10.0001C27.187 10.5126 26.762 10.9376 26.2495 10.9376Z" fill="#595959"/>
<path d="M14.9995 7.18759C14.487 7.18759 14.062 6.76259 14.062 6.25009V3.75009C14.062 3.23759 14.487 2.81259 14.9995 2.81259C15.512 2.81259 15.937 3.23759 15.937 3.75009V6.25009C15.937 6.76259 15.512 7.18759 14.9995 7.18759Z" fill="#595959"/>
<path d="M16.8745 7.18759H13.1245C12.612 7.18759 12.187 6.76259 12.187 6.25009C12.187 5.73759 12.612 5.31259 13.1245 5.31259H16.8745C17.387 5.31259 17.812 5.73759 17.812 6.25009C17.812 6.76259 17.387 7.18759 16.8745 7.18759Z" fill="#595959"/>
<path d="M11.2495 19.6876H7.49951C6.98701 19.6876 6.56201 19.2626 6.56201 18.7501C6.56201 18.2376 6.98701 17.8126 7.49951 17.8126H11.2495C11.762 17.8126 12.187 18.2376 12.187 18.7501C12.187 19.2626 11.762 19.6876 11.2495 19.6876Z" fill="#595959"/>
<path d="M22.4995 19.6876H18.7495C18.237 19.6876 17.812 19.2626 17.812 18.7501C17.812 18.2376 18.237 17.8126 18.7495 17.8126H22.4995C23.012 17.8126 23.437 18.2376 23.437 18.7501C23.437 19.2626 23.012 19.6876 22.4995 19.6876Z" fill="#595959"/>
</svg>
