<svg width="24" height="24" viewBox="0 0 24 24" fill="none" xmlns="http://www.w3.org/2000/svg">
<path d="M17.5 22.75H3.5C3.09 22.75 2.75 22.41 2.75 22V5.00001C2.75 2.76001 4.26 1.25001 6.5 1.25001H14.5C16.74 1.25001 18.25 2.76001 18.25 5.00001V22C18.25 22.41 17.91 22.75 17.5 22.75ZM4.25 21.25H16.75V5.00001C16.75 3.59001 15.91 2.75001 14.5 2.75001H6.5C5.09 2.75001 4.25 3.59001 4.25 5.00001V21.25Z" fill="#292D32"/>
<path d="M18.9999 22.75H1.99994C1.58994 22.75 1.24994 22.41 1.24994 22C1.24994 21.59 1.58994 21.25 1.99994 21.25H18.9999C19.4099 21.25 19.7499 21.59 19.7499 22C19.7499 22.41 19.4099 22.75 18.9999 22.75Z" fill="#292D32"/>
<path d="M12.6102 10.75H8.38023C6.75023 10.75 5.74023 9.74 5.74023 8.11V6.88C5.74023 5.25 6.75023 4.24001 8.38023 4.24001H12.6102C14.2402 4.24001 15.2502 5.25 15.2502 6.88V8.11C15.2502 9.74 14.2402 10.75 12.6102 10.75ZM8.39023 5.75C7.58023 5.75 7.25023 6.08 7.25023 6.89V8.12C7.25023 8.93 7.58023 9.25999 8.39023 9.25999H12.6202C13.4302 9.25999 13.7602 8.93 13.7602 8.12V6.89C13.7602 6.08 13.4302 5.75 12.6202 5.75H8.39023Z" fill="#292D32"/>
<path d="M9.49994 13.75H6.49994C6.08994 13.75 5.74994 13.41 5.74994 13C5.74994 12.59 6.08994 12.25 6.49994 12.25H9.49994C9.90994 12.25 10.2499 12.59 10.2499 13C10.2499 13.41 9.90994 13.75 9.49994 13.75Z" fill="#292D32"/>
<path d="M17.5 16.76C17.09 16.76 16.75 16.43 16.75 16.01C16.75 15.6 17.08 15.26 17.5 15.26L21.25 15.25V10.46L19.66 9.66998C19.29 9.47998 19.14 9.02998 19.32 8.65998C19.51 8.28998 19.96 8.13999 20.33 8.31999L22.33 9.31999C22.58 9.44999 22.74 9.70998 22.74 9.98998V15.99C22.74 16.4 22.41 16.74 21.99 16.74L17.5 16.76Z" fill="#292D32"/>
</svg>
