<svg width="40" height="40" viewBox="0 0 40 40" fill="none" xmlns="http://www.w3.org/2000/svg"><linearGradient id="a" gradientTransform="rotate(45)"><stop offset="0%" stop-color="#e08a1a"/><stop offset="70%" stop-color="#e08a1a"/><stop offset="90.01%" stop-color="#e08a1a"/><stop offset="100%" stop-color="#e08a1a"/></linearGradient><path d="M20 36.083c-.517 0-1.017-.066-1.433-.216C12.2 33.683 2.083 25.933 2.083 14.483 2.083 8.65 6.8 3.917 12.6 3.917c2.817 0 5.45 1.1 7.4 3.066a10.357 10.357 0 0 1 7.4-3.066c5.8 0 10.517 4.75 10.517 10.566 0 11.467-10.117 19.2-16.484 21.384-.416.15-.916.216-1.433.216Z" fill="#e08a1a"/><path d="M20 36.083c-.517 0-1.017-.066-1.433-.216C12.2 33.683 2.083 25.933 2.083 14.483 2.083 8.65 6.8 3.917 12.6 3.917c2.817 0 5.45 1.1 7.4 3.066a10.357 10.357 0 0 1 7.4-3.066c5.8 0 10.517 4.75 10.517 10.566 0 11.467-10.117 19.2-16.484 21.384-.416.15-.916.216-1.433.216ZM12.6 6.417c-4.417 0-8.017 3.616-8.017 8.066 0 11.384 10.95 17.717 14.8 19.034.3.1.95.1 1.25 0 3.834-1.317 14.8-7.634 14.8-19.034 0-4.45-3.6-8.066-8.016-8.066a7.919 7.919 0 0 0-6.4 3.233c-.467.633-1.534.633-2 0-1.55-2.067-3.884-3.233-6.417-3.233Z" fill="#292D32"/></svg>