<svg width="32" height="32" viewBox="0 0 32 32" fill="none" xmlns="http://www.w3.org/2000/svg">
<path d="M15.9998 28.8667C15.5865 28.8667 15.1865 28.8133 14.8532 28.6933C9.75984 26.9467 1.6665 20.7467 1.6665 11.5867C1.6665 6.92 5.43984 3.13333 10.0798 3.13333C12.3332 3.13333 14.4398 4.01333 15.9998 5.58666C17.5598 4.01333 19.6665 3.13333 21.9198 3.13333C26.5598 3.13333 30.3332 6.93333 30.3332 11.5867C30.3332 20.76 22.2398 26.9467 17.1465 28.6933C16.8132 28.8133 16.4132 28.8667 15.9998 28.8667ZM10.0798 5.13333C6.5465 5.13333 3.6665 8.02666 3.6665 11.5867C3.6665 20.6933 12.4265 25.76 15.5065 26.8133C15.7465 26.8933 16.2665 26.8933 16.5065 26.8133C19.5732 25.76 28.3465 20.7067 28.3465 11.5867C28.3465 8.02666 25.4665 5.13333 21.9332 5.13333C19.9065 5.13333 18.0265 6.08 16.8132 7.72C16.4398 8.22666 15.5865 8.22666 15.2132 7.72C13.9732 6.06666 12.1065 5.13333 10.0798 5.13333Z" fill="#595959"/>
</svg>
