<svg width="40" height="40" viewBox="0 0 40 40" fill="none" xmlns="http://www.w3.org/2000/svg">
<path d="M20 36.0833C19.4834 36.0833 18.9834 36.0167 18.5667 35.8667C12.2 33.6833 2.08337 25.9333 2.08337 14.4833C2.08337 8.64999 6.80004 3.91666 12.6 3.91666C15.4167 3.91666 18.05 5.01666 20 6.98332C21.95 5.01666 24.5834 3.91666 27.4 3.91666C33.2 3.91666 37.9167 8.66666 37.9167 14.4833C37.9167 25.95 27.8 33.6833 21.4334 35.8667C21.0167 36.0167 20.5167 36.0833 20 36.0833ZM12.6 6.41666C8.18337 6.41666 4.58337 10.0333 4.58337 14.4833C4.58337 25.8667 15.5334 32.2 19.3834 33.5167C19.6834 33.6167 20.3334 33.6167 20.6334 33.5167C24.4667 32.2 35.4334 25.8833 35.4334 14.4833C35.4334 10.0333 31.8334 6.41666 27.4167 6.41666C24.8834 6.41666 22.5334 7.59999 21.0167 9.64999C20.55 10.2833 19.4834 10.2833 19.0167 9.64999C17.4667 7.58332 15.1334 6.41666 12.6 6.41666Z" fill="#292D32"/>
</svg>
