<svg width="28" height="29" viewBox="0 0 28 29" fill="none" xmlns="http://www.w3.org/2000/svg">
<path d="M7.34485 5.97843L5.08735 3.72303L3.31897 5.49963L5.56393 7.75503L7.34485 5.97843ZM3.88335 13.11H0.12085V15.63H3.88335V13.11ZM15.1708 0.573029H12.6625V4.29003H15.1708V0.573029ZM24.5144 5.49963L22.746 3.72303L20.5011 5.97843L22.2694 7.75503L24.5144 5.49963ZM20.4885 22.7616L22.7335 25.0296L24.5018 23.253L22.2443 20.9976L20.4885 22.7616ZM23.95 13.11V15.63H27.7125V13.11H23.95ZM13.9167 6.81003C9.76539 6.81003 6.39168 10.1994 6.39168 14.37C6.39168 18.5406 9.76539 21.93 13.9167 21.93C18.068 21.93 21.4417 18.5406 21.4417 14.37C21.4417 10.1994 18.068 6.81003 13.9167 6.81003ZM12.6625 28.167H15.1708V24.45H12.6625V28.167ZM3.31897 23.2404L5.08735 25.017L7.33231 22.749L5.56393 20.9724L3.31897 23.2404Z" fill="white"/>
</svg>
