<svg width="24" height="24" viewBox="0 0 24 24" fill="none" xmlns="http://www.w3.org/2000/svg">
<g clip-path="url(#clip0_14_212)">
<path d="M24 0H0V24H24V0Z" fill="white" fill-opacity="0.01"/>
<path d="M15.1486 9.3893C15.1486 9.3893 13.534 13.9404 12.7667 14.735C11.9994 15.5296 10.7333 15.5517 9.93872 14.7844C9.14412 14.0171 9.12202 12.7509 9.88932 11.9564C10.6566 11.1618 15.1486 9.3893 15.1486 9.3893Z" stroke="#333333" stroke-width="2" stroke-linejoin="round"/>
<path d="M19.4246 19.4246C21.3248 17.5245 22.5 14.8995 22.5 12C22.5 6.201 17.799 1.5 12 1.5C6.201 1.5 1.5 6.201 1.5 12C1.5 14.8995 2.67525 17.5245 4.57538 19.4246" stroke="#333333" stroke-width="2" stroke-linecap="round" stroke-linejoin="round"/>
<path d="M12 2V4" stroke="#333333" stroke-width="2" stroke-linecap="round" stroke-linejoin="round"/>
<path d="M19.4227 5.57105L17.8684 6.82965" stroke="#333333" stroke-width="2" stroke-linecap="round" stroke-linejoin="round"/>
<path d="M21.2613 13.6164L19.3126 13.1665" stroke="#333333" stroke-width="2" stroke-linecap="round" stroke-linejoin="round"/>
<path d="M2.73877 13.6164L4.68751 13.1665" stroke="#333333" stroke-width="2" stroke-linecap="round" stroke-linejoin="round"/>
<path d="M4.57733 5.57105L6.13162 6.82965" stroke="#333333" stroke-width="2" stroke-linecap="round" stroke-linejoin="round"/>
</g>
<defs>
<clipPath id="clip0_14_212">
<rect width="24" height="24" fill="white"/>
</clipPath>
</defs>
</svg>
