<svg width="21" height="21" viewBox="0 0 21 21" fill="none" xmlns="http://www.w3.org/2000/svg">
<path d="M13.5944 4.8076C11.168 2.38119 7.23401 2.38119 4.8076 4.8076C2.38119 7.23401 2.38119 11.168 4.8076 13.5944C7.23401 16.0208 11.168 16.0208 13.5944 13.5944C16.0208 11.168 16.0208 7.23401 13.5944 4.8076ZM3.39338 3.39338C6.60084 0.185929 11.8012 0.185929 15.0086 3.39338C17.9767 6.36148 18.1982 11.0361 15.6731 14.2589L19.799 18.3848C20.1895 18.7753 20.1895 19.4085 19.799 19.799C19.4084 20.1895 18.7753 20.1895 18.3848 19.799L14.2589 15.6731C11.0361 18.1982 6.36148 17.9767 3.39338 15.0086C0.185929 11.8012 0.185929 6.60084 3.39338 3.39338Z" fill="#858585"/>
</svg>
