<svg width="30" height="30" viewBox="0 0 30 30" fill="none" xmlns="http://www.w3.org/2000/svg">
<path d="M15 23.75C12.9498 23.7755 10.9209 23.3331 9.0675 22.4562C7.63087 21.7553 6.34082 20.7872 5.26625 19.6037C4.12804 18.3801 3.23183 16.9521 2.625 15.395L2.5 15L2.63125 14.605C3.23852 13.0493 4.13279 11.6216 5.2675 10.3962C6.34168 9.21289 7.6313 8.24483 9.0675 7.54375C10.9209 6.66698 12.9498 6.22451 15 6.25C17.0501 6.22455 19.0791 6.66702 20.9325 7.54375C22.3692 8.24466 23.6592 9.21274 24.7338 10.3962C25.8741 11.6182 26.7706 13.0467 27.375 14.605L27.5 15L27.3688 15.395C25.4078 20.4997 20.4677 23.8367 15 23.75ZM15 8.75C10.7448 8.61666 6.83927 11.0939 5.14625 15C6.839 18.9064 10.7447 21.3837 15 21.25C19.2551 21.383 23.1604 18.9059 24.8537 15C23.1629 11.092 19.2559 8.61384 15 8.75ZM15 18.75C13.1967 18.7619 11.6367 17.4967 11.2762 15.7297C10.9157 13.9627 11.8553 12.1875 13.5192 11.4921C15.1831 10.7966 17.1065 11.3752 18.1107 12.8731C19.1148 14.3711 18.9192 16.3701 17.6437 17.645C16.9454 18.3516 15.9934 18.7495 15 18.75Z" fill="black"/>
</svg>
