<svg width="24" height="24" viewBox="0 0 24 24" fill="none" xmlns="http://www.w3.org/2000/svg">
<path d="M19.9996 11.7501H3.99961C3.76961 11.7501 3.55961 11.6501 3.41961 11.4701C3.27961 11.3001 3.21961 11.0601 3.26961 10.8401L4.39961 5.44008C4.76961 3.69008 5.51961 2.08008 8.48961 2.08008H15.5196C18.4896 2.08008 19.2396 3.70008 19.6096 5.44008L20.7396 10.8501C20.7896 11.0701 20.7296 11.3001 20.5896 11.4801C20.4396 11.6501 20.2296 11.7501 19.9996 11.7501ZM4.91961 10.2501H19.0696L18.1296 5.75008C17.8496 4.44008 17.5196 3.58008 15.5096 3.58008H8.48961C6.47961 3.58008 6.14961 4.44008 5.86961 5.75008L4.91961 10.2501Z" fill="#292D32"/>
<path d="M19.9596 22.7501H18.0796C16.4596 22.7501 16.1496 21.8201 15.9496 21.2101L15.7496 20.6101C15.4896 19.8501 15.4596 19.7501 14.5596 19.7501H9.4396C8.5396 19.7501 8.4796 19.9201 8.2496 20.6101L8.0496 21.2101C7.8396 21.8301 7.5396 22.7501 5.9196 22.7501H4.0396C3.2496 22.7501 2.4896 22.4201 1.9596 21.8401C1.4396 21.2701 1.1896 20.5101 1.2596 19.7501L1.8196 13.6601C1.9696 12.0101 2.4096 10.2501 5.6196 10.2501H18.3796C21.5896 10.2501 22.0196 12.0101 22.1796 13.6601L22.7396 19.7501C22.8096 20.5101 22.5596 21.2701 22.0396 21.8401C21.5096 22.4201 20.7496 22.7501 19.9596 22.7501ZM9.4396 18.2501H14.5596C16.3796 18.2501 16.8096 19.0601 17.1696 20.1201L17.3796 20.7401C17.5496 21.2501 17.5496 21.2601 18.0896 21.2601H19.9696C20.3396 21.2601 20.6896 21.1101 20.9396 20.8401C21.1796 20.5801 21.2896 20.2501 21.2596 19.9001L20.6996 13.8101C20.5696 12.4601 20.4096 11.7601 18.3996 11.7601H5.6196C3.5996 11.7601 3.4396 12.4601 3.3196 13.8101L2.7596 19.9001C2.7296 20.2501 2.8396 20.5801 3.0796 20.8401C3.3196 21.1101 3.6796 21.2601 4.0496 21.2601H5.9296C6.4696 21.2601 6.4696 21.2501 6.6396 20.7501L6.8396 20.1401C7.0896 19.3401 7.4596 18.2501 9.4396 18.2501Z" fill="#292D32"/>
<path d="M3.99957 8.75008H2.99957C2.58957 8.75008 2.24957 8.41008 2.24957 8.00008C2.24957 7.59008 2.58957 7.25008 2.99957 7.25008H3.99957C4.40957 7.25008 4.74957 7.59008 4.74957 8.00008C4.74957 8.41008 4.40957 8.75008 3.99957 8.75008Z" fill="#292D32"/>
<path d="M20.9996 8.75008H19.9996C19.5896 8.75008 19.2496 8.41008 19.2496 8.00008C19.2496 7.59008 19.5896 7.25008 19.9996 7.25008H20.9996C21.4096 7.25008 21.7496 7.59008 21.7496 8.00008C21.7496 8.41008 21.4096 8.75008 20.9996 8.75008Z" fill="#292D32"/>
<path d="M11.9996 5.75008C11.5896 5.75008 11.2496 5.41008 11.2496 5.00008V3.00008C11.2496 2.59008 11.5896 2.25008 11.9996 2.25008C12.4096 2.25008 12.7496 2.59008 12.7496 3.00008V5.00008C12.7496 5.41008 12.4096 5.75008 11.9996 5.75008Z" fill="#292D32"/>
<path d="M13.4996 5.75008H10.4996C10.0896 5.75008 9.74957 5.41008 9.74957 5.00008C9.74957 4.59008 10.0896 4.25008 10.4996 4.25008H13.4996C13.9096 4.25008 14.2496 4.59008 14.2496 5.00008C14.2496 5.41008 13.9096 5.75008 13.4996 5.75008Z" fill="#292D32"/>
<path d="M8.99957 15.7501H5.99957C5.58957 15.7501 5.24957 15.4101 5.24957 15.0001C5.24957 14.5901 5.58957 14.2501 5.99957 14.2501H8.99957C9.40957 14.2501 9.74957 14.5901 9.74957 15.0001C9.74957 15.4101 9.40957 15.7501 8.99957 15.7501Z" fill="#292D32"/>
<path d="M17.9996 15.7501H14.9996C14.5896 15.7501 14.2496 15.4101 14.2496 15.0001C14.2496 14.5901 14.5896 14.2501 14.9996 14.2501H17.9996C18.4096 14.2501 18.7496 14.5901 18.7496 15.0001C18.7496 15.4101 18.4096 15.7501 17.9996 15.7501Z" fill="#292D32"/>
</svg>
