<svg version="1.1" xmlns="http://www.w3.org/2000/svg" xmlns:xlink="http://www.w3.org/1999/xlink" width="512.000000pt" height="512.000000pt" viewBox="0,0,256,256"><g fill="#ffffff" fill-rule="nonzero" stroke="none" stroke-width="1" stroke-linecap="butt" stroke-linejoin="miter" stroke-miterlimit="10" stroke-dasharray="" stroke-dashoffset="0" font-family="none" font-weight="none" font-size="none" text-anchor="none" style="mix-blend-mode: normal"><g transform="translate(-0.00552,-0.04035) scale(0.5,0.5)"><g transform="translate(0,512) scale(0.1,-0.1)"><path d="M2420,4954c-298,-38 -551,-162 -761,-373c-188,-189 -299,-392 -355,-651c-26,-119 -26,-381 0,-500c55,-257 169,-466 355,-651c185,-186 394,-300 651,-355c119,-26 381,-26 500,0c259,56 462,167 651,355c186,185 300,394 355,651c26,119 26,381 0,500c-55,257 -169,466 -355,651c-185,185 -380,293 -631,350c-83,19 -331,33 -410,23zM2791,4611c179,-46 319,-127 449,-260c129,-130 212,-278 257,-457c24,-95 24,-333 0,-428c-46,-185 -125,-324 -262,-461c-137,-137 -276,-216 -461,-262c-98,-24 -324,-24 -424,0c-364,88 -636,359 -727,723c-24,95 -24,333 0,428c46,182 128,328 261,462c158,157 305,231 556,278c59,11 277,-3 351,-23z"></path><path d="M1750,2236c-76,-28 -242,-118 -341,-184c-530,-356 -857,-906 -920,-1547c-16,-167 -10,-233 25,-280c54,-70 -110,-65 2060,-63l1965,3l27,21c73,54 85,113 65,319c-71,731 -499,1357 -1144,1676c-163,81 -164,81 -305,26c-241,-94 -380,-120 -622,-120c-243,0 -398,30 -628,123c-107,43 -128,46 -182,26zM1890,1881c92,-36 243,-75 370,-96c332,-54 700,-12 1026,116c30,12 37,9 134,-46c329,-186 600,-483 749,-824c69,-155 141,-426 141,-528v-23h-1750h-1750v23c0,43 32,212 57,297c127,444 420,817 823,1049c58,34 109,61 115,61c5,0 44,-13 85,-29z"></path></g></g></g></svg>